<?xml version="1.0" encoding="UTF-8"?>
<svg id="logo-color-trace" xmlns="http://www.w3.org/2000/svg" version="1.1" viewBox="0 0 512 512">
  <metadata>
    <rdf:RDF xmlns:rdf="http://www.w3.org/1999/02/22-rdf-syntax-ns#"
             xmlns:dc="http://purl.org/dc/elements/1.1/"
             xmlns:cc="http://creativecommons.org/ns#">
      <cc:Work rdf:about="">
        <dc:title>Color Trace Logo</dc:title>
        <dc:description>Logo for the Color Trace VS Code extension.</dc:description>
        <dc:creator>
          <cc:Agent>
            <dc:title>XulbuX</dc:title>
          </cc:Agent>
        </dc:creator>
        <dc:date>07/07/2026</dc:date>
        <dc:format>image/svg+xml</dc:format>
        <dc:type rdf:resource="http://purl.org/dc/dcmitype/StillImage"/>
        <dc:rights>
          <cc:Agent>
            <dc:title>Copyright (c) 2026 XulbuX. All rights reserved.</dc:title>
          </cc:Agent>
        </dc:rights>
      </cc:Work>
    </rdf:RDF>
  </metadata>
  <g><rect fill="#9670FF" x="0" y="0" width="512" height="512" rx="112" ry="112"/></g>
  <path fill="#000000" d="M226.64,74.51c12.3,2.63,20.12,14.72,17.49,27.01l-13.58,63.48h89.93l15.64-73.01c2.63-12.3,14.72-20.12,27.02-17.49,12.3,2.63,20.12,14.72,17.49,27.01l-13.58,63.48h48.2c12.58,0,22.75,10.17,22.75,22.75s-10.17,22.75-22.75,22.75h-58.01l-19.48,90.99h48.2c12.58,0,22.75,10.17,22.75,22.75s-10.17,22.75-22.75,22.75h-58.01l-15.64,73.01c-2.63,12.3-14.72,20.12-27.02,17.49s-20.12-14.72-17.49-27.01l13.58-63.48h-89.93l-15.64,73.01c-2.63,12.3-14.72,20.12-27.02,17.49s-20.12-14.72-17.49-27.01l13.65-63.48h-48.2c-12.58,0-22.75-10.17-22.75-22.75s10.17-22.75,22.75-22.75h58.01l19.48-90.99h-48.2c-12.58,0-22.75-10.17-22.75-22.75s10.17-22.75,22.75-22.75h58.01l15.64-73.01c2.56-12.3,14.65-20.12,26.94-17.49ZM220.74,210.5l-19.48,90.99h89.93l19.48-90.99h-89.93Z"/>
</svg>